{
	"asset":{
		"generator":"Khronos glTF Blender I/O v3.6.27",
		"version":"2.0"
	},
	"scene":0,
	"scenes":[
		{
			"name":"Scene",
			"nodes":[
				26
			]
		}
	],
	"nodes":[
		{
			"name":"Wing.000_L",
			"rotation":[
				0.5442187786102295,
				-0.45042553544044495,
				0.548315167427063,
				0.44754132628440857
			],
			"scale":[
				1.000000238418579,
				1.000000238418579,
				1.0000001192092896
			],
			"translation":[
				-0.15873423218727112,
				0.9904043078422546,
				0.0862530916929245
			]
		},
		{
			"name":"Wing.000_R",
			"rotation":[
				0.5442190766334534,
				0.45042529702186584,
				-0.5483148694038391,
				0.44754141569137573
			],
			"scale":[
				1.000000238418579,
				1.000000238418579,
				1.0000001192092896
			],
			"translation":[
				0.15873418748378754,
				0.9904043078422546,
				0.08625315129756927
			]
		},
		{
			"name":"Wing.001_L",
			"rotation":[
				0.6393832564353943,
				-0.31127986311912537,
				0.6436842679977417,
				0.2827797532081604
			],
			"scale":[
				1.0000001192092896,
				1.0000001192092896,
				1
			],
			"translation":[
				-0.18724197149276733,
				0.19476424157619476,
				0.0087228799238801
			]
		},
		{
			"name":"Wing.001_R",
			"rotation":[
				0.6393837332725525,
				0.311279833316803,
				-0.6436838507652283,
				0.28277990221977234
			],
			"translation":[
				0.18724197149276733,
				0.19476427137851715,
				0.008723026141524315
			]
		},
		{
			"name":"Body.001",
			"rotation":[
				-1.9470719792025193e-07,
				0,
				1,
				1.3754877829001724e-20
			],
			"translation":[
				4.119801559360897e-14,
				-4.6527389940820285e-07,
				2.5615705112613796e-08
			]
		},
		{
			"name":"Leg22_L",
			"rotation":[
				0.018376605585217476,
				0.01937534660100937,
				0.6810973286628723,
				0.7317057847976685
			],
			"scale":[
				0.9999998807907104,
				1,
				1
			],
			"translation":[
				5.925539880990982e-08,
				0.35956233739852905,
				-5.587935447692871e-09
			]
		},
		{
			"children":[
				5
			],
			"name":"Leg21_L",
			"rotation":[
				0.5680140256881714,
				-0.42215511202812195,
				0.4061344861984253,
				0.578100323677063
			],
			"translation":[
				-0.16115334630012512,
				0.6265441179275513,
				-0.28661584854125977
			]
		},
		{
			"name":"Leg22_R",
			"rotation":[
				0.018376603722572327,
				-0.019375354051589966,
				-0.6810974478721619,
				0.7317057251930237
			],
			"scale":[
				0.9999999403953552,
				1,
				1
			],
			"translation":[
				4.586763679981232e-08,
				0.3595622777938843,
				1.280568540096283e-08
			]
		},
		{
			"children":[
				7
			],
			"name":"Leg21_R",
			"rotation":[
				0.5680143237113953,
				0.4221547842025757,
				-0.40613433718681335,
				0.5781005024909973
			],
			"scale":[
				1,
				0.9999999403953552,
				0.9999999403953552
			],
			"translation":[
				0.16115358471870422,
				0.6265441179275513,
				-0.28661584854125977
			]
		},
		{
			"name":"Leg12_L",
			"rotation":[
				0.5133553147315979,
				-0.5230954885482788,
				0.5329223275184631,
				0.422884464263916
			],
			"translation":[
				9.685754776000977e-08,
				0.5244426727294922,
				1.4901161193847656e-08
			]
		},
		{
			"children":[
				9
			],
			"name":"Leg11_L",
			"rotation":[
				0.12842564284801483,
				-0.5663914084434509,
				0.18592916429042816,
				0.792551577091217
			],
			"scale":[
				1,
				1,
				1.0000001192092896
			],
			"translation":[
				-0.1133575513958931,
				0.7288209199905396,
				-0.32420897483825684
			]
		},
		{
			"name":"Leg12_R",
			"rotation":[
				0.5133556127548218,
				0.5230952501296997,
				-0.5329221487045288,
				0.4228844940662384
			],
			"scale":[
				1,
				1.0000004768371582,
				1.0000001192092896
			],
			"translation":[
				8.940696716308594e-08,
				0.524442732334137,
				0
			]
		},
		{
			"children":[
				11
			],
			"name":"Leg11_R",
			"rotation":[
				0.12842579185962677,
				0.5663914084434509,
				-0.1859290599822998,
				0.7925516366958618
			],
			"scale":[
				0.9999999403953552,
				0.9999998807907104,
				0.9999999403953552
			],
			"translation":[
				0.1133577898144722,
				0.7288209199905396,
				-0.32420894503593445
			]
		},
		{
			"name":"Leg22_L.001",
			"rotation":[
				-0.0027984315529465675,
				0.12399138510227203,
				0.4465419352054596,
				0.8861256241798401
			],
			"translation":[
				-3.725290298461914e-08,
				0.35834968090057373,
				-1.4901161193847656e-08
			]
		},
		{
			"children":[
				13
			],
			"name":"Leg21_L.001",
			"rotation":[
				0.4538319706916809,
				-0.3142038881778717,
				0.7537695169448853,
				0.3565724790096283
			],
			"scale":[
				1.0000003576278687,
				1.000000238418579,
				1.0000001192092896
			],
			"translation":[
				-0.16115333139896393,
				0.4259493052959442,
				-0.28661593794822693
			]
		},
		{
			"name":"Leg22_R.001",
			"rotation":[
				-0.0027985302731394768,
				-0.12399133294820786,
				-0.44654199481010437,
				0.8861256241798401
			],
			"scale":[
				1,
				1,
				1.0000001192092896
			],
			"translation":[
				-5.960464477539063e-08,
				0.35834962129592896,
				2.9802322387695312e-08
			]
		},
		{
			"children":[
				15
			],
			"name":"Leg21_R.001",
			"rotation":[
				0.4538321793079376,
				0.31420373916625977,
				-0.7537693977355957,
				0.3565727174282074
			],
			"scale":[
				0.9999999403953552,
				0.9999999403953552,
				1
			],
			"translation":[
				0.16115351021289825,
				0.4259493052959442,
				-0.2866157591342926
			]
		},
		{
			"children":[
				0,
				1,
				2,
				3,
				4,
				6,
				8,
				10,
				12,
				14,
				16
			],
			"name":"Body.000",
			"rotation":[
				-5.3385036835607025e-08,
				-0.7071069478988647,
				0.7071065902709961,
				2.219725132590611e-07
			],
			"translation":[
				4.6716682078340455e-08,
				0.2553279399871826,
				0.19594404101371765
			]
		},
		{
			"name":"IK-Leg2_L",
			"rotation":[
				-1,
				0,
				7.549790126404332e-08,
				9.2597367995495e-08
			],
			"translation":[
				0.7828505635261536,
				1.1073353290557861,
				-0.4090271592140198
			]
		},
		{
			"name":"IK-Leg2_R",
			"rotation":[
				1,
				0,
				-7.549790126404332e-08,
				0
			],
			"translation":[
				-0.7828508019447327,
				1.1073352098464966,
				-0.4090268611907959
			]
		},
		{
			"name":"IK-Leg1_L",
			"rotation":[
				1,
				0,
				-7.549790126404332e-08,
				0
			],
			"translation":[
				0.42346999049186707,
				1.1382136344909668,
				-0.9001770615577698
			]
		},
		{
			"name":"IK-Leg1_R",
			"rotation":[
				1,
				0,
				-7.549790126404332e-08,
				0
			],
			"translation":[
				-0.4234704077243805,
				1.1382133960723877,
				-0.9001768827438354
			]
		},
		{
			"name":"IK-Leg3_L",
			"rotation":[
				1,
				0,
				-7.549790126404332e-08,
				0
			],
			"translation":[
				0.5768959522247314,
				1.1073352098464966,
				0.3752424716949463
			]
		},
		{
			"name":"IK-Leg3_R",
			"rotation":[
				1,
				0,
				-7.549790126404332e-08,
				0
			],
			"translation":[
				-0.5768957138061523,
				1.107335090637207,
				0.3752428889274597
			]
		},
		{
			"children":[
				17,
				18,
				19,
				20,
				21,
				22,
				23
			],
			"name":"Root",
			"rotation":[
				1,
				0,
				-1.1920928955078125e-07,
				0
			],
			"translation":[
				0,
				1.1094410419464111,
				-0.2865954339504242
			]
		},
		{
			"mesh":0,
			"name":"Butterfly",
			"skin":0
		},
		{
			"children":[
				25,
				24
			],
			"name":"Armature"
		}
	],
	"animations":[
		{
			"channels":[
				{
					"sampler":0,
					"target":{
						"node":24,
						"path":"translation"
					}
				},
				{
					"sampler":1,
					"target":{
						"node":24,
						"path":"rotation"
					}
				},
				{
					"sampler":2,
					"target":{
						"node":24,
						"path":"scale"
					}
				},
				{
					"sampler":3,
					"target":{
						"node":17,
						"path":"translation"
					}
				},
				{
					"sampler":4,
					"target":{
						"node":17,
						"path":"rotation"
					}
				},
				{
					"sampler":5,
					"target":{
						"node":17,
						"path":"scale"
					}
				},
				{
					"sampler":6,
					"target":{
						"node":0,
						"path":"translation"
					}
				},
				{
					"sampler":7,
					"target":{
						"node":0,
						"path":"rotation"
					}
				},
				{
					"sampler":8,
					"target":{
						"node":0,
						"path":"scale"
					}
				},
				{
					"sampler":9,
					"target":{
						"node":1,
						"path":"translation"
					}
				},
				{
					"sampler":10,
					"target":{
						"node":1,
						"path":"rotation"
					}
				},
				{
					"sampler":11,
					"target":{
						"node":1,
						"path":"scale"
					}
				},
				{
					"sampler":12,
					"target":{
						"node":2,
						"path":"translation"
					}
				},
				{
					"sampler":13,
					"target":{
						"node":2,
						"path":"rotation"
					}
				},
				{
					"sampler":14,
					"target":{
						"node":2,
						"path":"scale"
					}
				},
				{
					"sampler":15,
					"target":{
						"node":3,
						"path":"translation"
					}
				},
				{
					"sampler":16,
					"target":{
						"node":3,
						"path":"rotation"
					}
				},
				{
					"sampler":17,
					"target":{
						"node":3,
						"path":"scale"
					}
				},
				{
					"sampler":18,
					"target":{
						"node":4,
						"path":"translation"
					}
				},
				{
					"sampler":19,
					"target":{
						"node":4,
						"path":"rotation"
					}
				},
				{
					"sampler":20,
					"target":{
						"node":4,
						"path":"scale"
					}
				},
				{
					"sampler":21,
					"target":{
						"node":6,
						"path":"translation"
					}
				},
				{
					"sampler":22,
					"target":{
						"node":6,
						"path":"rotation"
					}
				},
				{
					"sampler":23,
					"target":{
						"node":6,
						"path":"scale"
					}
				},
				{
					"sampler":24,
					"target":{
						"node":5,
						"path":"translation"
					}
				},
				{
					"sampler":25,
					"target":{
						"node":5,
						"path":"rotation"
					}
				},
				{
					"sampler":26,
					"target":{
						"node":5,
						"path":"scale"
					}
				},
				{
					"sampler":27,
					"target":{
						"node":8,
						"path":"translation"
					}
				},
				{
					"sampler":28,
					"target":{
						"node":8,
						"path":"rotation"
					}
				},
				{
					"sampler":29,
					"target":{
						"node":8,
						"path":"scale"
					}
				},
				{
					"sampler":30,
					"target":{
						"node":7,
						"path":"translation"
					}
				},
				{
					"sampler":31,
					"target":{
						"node":7,
						"path":"rotation"
					}
				},
				{
					"sampler":32,
					"target":{
						"node":7,
						"path":"scale"
					}
				},
				{
					"sampler":33,
					"target":{
						"node":10,
						"path":"translation"
					}
				},
				{
					"sampler":34,
					"target":{
						"node":10,
						"path":"rotation"
					}
				},
				{
					"sampler":35,
					"target":{
						"node":10,
						"path":"scale"
					}
				},
				{
					"sampler":36,
					"target":{
						"node":9,
						"path":"translation"
					}
				},
				{
					"sampler":37,
					"target":{
						"node":9,
						"path":"rotation"
					}
				},
				{
					"sampler":38,
					"target":{
						"node":9,
						"path":"scale"
					}
				},
				{
					"sampler":39,
					"target":{
						"node":12,
						"path":"translation"
					}
				},
				{
					"sampler":40,
					"target":{
						"node":12,
						"path":"rotation"
					}
				},
				{
					"sampler":41,
					"target":{
						"node":12,
						"path":"scale"
					}
				},
				{
					"sampler":42,
					"target":{
						"node":11,
						"path":"translation"
					}
				},
				{
					"sampler":43,
					"target":{
						"node":11,
						"path":"rotation"
					}
				},
				{
					"sampler":44,
					"target":{
						"node":11,
						"path":"scale"
					}
				},
				{
					"sampler":45,
					"target":{
						"node":14,
						"path":"translation"
					}
				},
				{
					"sampler":46,
					"target":{
						"node":14,
						"path":"rotation"
					}
				},
				{
					"sampler":47,
					"target":{
						"node":14,
						"path":"scale"
					}
				},
				{
					"sampler":48,
					"target":{
						"node":13,
						"path":"translation"
					}
				},
				{
					"sampler":49,
					"target":{
						"node":13,
						"path":"rotation"
					}
				},
				{
					"sampler":50,
					"target":{
						"node":13,
						"path":"scale"
					}
				},
				{
					"sampler":51,
					"target":{
						"node":16,
						"path":"translation"
					}
				},
				{
					"sampler":52,
					"target":{
						"node":16,
						"path":"rotation"
					}
				},
				{
					"sampler":53,
					"target":{
						"node":16,
						"path":"scale"
					}
				},
				{
					"sampler":54,
					"target":{
						"node":15,
						"path":"translation"
					}
				},
				{
					"sampler":55,
					"target":{
						"node":15,
						"path":"rotation"
					}
				},
				{
					"sampler":56,
					"target":{
						"node":15,
						"path":"scale"
					}
				},
				{
					"sampler":57,
					"target":{
						"node":18,
						"path":"translation"
					}
				},
				{
					"sampler":58,
					"target":{
						"node":18,
						"path":"rotation"
					}
				},
				{
					"sampler":59,
					"target":{
						"node":18,
						"path":"scale"
					}
				},
				{
					"sampler":60,
					"target":{
						"node":19,
						"path":"translation"
					}
				},
				{
					"sampler":61,
					"target":{
						"node":19,
						"path":"rotation"
					}
				},
				{
					"sampler":62,
					"target":{
						"node":19,
						"path":"scale"
					}
				},
				{
					"sampler":63,
					"target":{
						"node":20,
						"path":"translation"
					}
				},
				{
					"sampler":64,
					"target":{
						"node":20,
						"path":"rotation"
					}
				},
				{
					"sampler":65,
					"target":{
						"node":20,
						"path":"scale"
					}
				},
				{
					"sampler":66,
					"target":{
						"node":21,
						"path":"translation"
					}
				},
				{
					"sampler":67,
					"target":{
						"node":21,
						"path":"rotation"
					}
				},
				{
					"sampler":68,
					"target":{
						"node":21,
						"path":"scale"
					}
				},
				{
					"sampler":69,
					"target":{
						"node":22,
						"path":"translation"
					}
				},
				{
					"sampler":70,
					"target":{
						"node":22,
						"path":"rotation"
					}
				},
				{
					"sampler":71,
					"target":{
						"node":22,
						"path":"scale"
					}
				},
				{
					"sampler":72,
					"target":{
						"node":23,
						"path":"translation"
					}
				},
				{
					"sampler":73,
					"target":{
						"node":23,
						"path":"rotation"
					}
				},
				{
					"sampler":74,
					"target":{
						"node":23,
						"path":"scale"
					}
				}
			],
			"name":"Flying",
			"samplers":[
				{
					"input":8,
					"interpolation":"STEP",
					"output":9
				},
				{
					"input":8,
					"interpolation":"STEP",
					"output":10
				},
				{
					"input":8,
					"interpolation":"STEP",
					"output":11
				},
				{
					"input":12,
					"interpolation":"LINEAR",
					"output":13
				},
				{
					"input":8,
					"interpolation":"STEP",
					"output":14
				},
				{
					"input":8,
					"interpolation":"STEP",
					"output":15
				},
				{
					"input":8,
					"interpolation":"STEP",
					"output":16
				},
				{
					"input":12,
					"interpolation":"LINEAR",
					"output":17
				},
				{
					"input":8,
					"interpolation":"STEP",
					"output":18
				},
				{
					"input":12,
					"interpolation":"LINEAR",
					"output":19
				},
				{
					"input":12,
					"interpolation":"LINEAR",
					"output":20
				},
				{
					"input":8,
					"interpolation":"STEP",
					"output":21
				},
				{
					"input":8,
					"interpolation":"STEP",
					"output":22
				},
				{
					"input":12,
					"interpolation":"LINEAR",
					"output":23
				},
				{
					"input":8,
					"interpolation":"STEP",
					"output":24
				},
				{
					"input":12,
					"interpolation":"LINEAR",
					"output":25
				},
				{
					"input":12,
					"interpolation":"LINEAR",
					"output":26
				},
				{
					"input":8,
					"interpolation":"STEP",
					"output":27
				},
				{
					"input":8,
					"interpolation":"STEP",
					"output":28
				},
				{
					"input":8,
					"interpolation":"STEP",
					"output":29
				},
				{
					"input":8,
					"interpolation":"STEP",
					"output":30
				},
				{
					"input":8,
					"interpolation":"STEP",
					"output":31
				},
				{
					"input":8,
					"interpolation":"STEP",
					"output":32
				},
				{
					"input":8,
					"interpolation":"STEP",
					"output":33
				},
				{
					"input":8,
					"interpolation":"STEP",
					"output":34
				},
				{
					"input":8,
					"interpolation":"STEP",
					"output":35
				},
				{
					"input":8,
					"interpolation":"STEP",
					"output":36
				},
				{
					"input":8,
					"interpolation":"STEP",
					"output":37
				},
				{
					"input":8,
					"interpolation":"STEP",
					"output":38
				},
				{
					"input":8,
					"interpolation":"STEP",
					"output":39
				},
				{
					"input":8,
					"interpolation":"STEP",
					"output":40
				},
				{
					"input":8,
					"interpolation":"STEP",
					"output":41
				},
				{
					"input":8,
					"interpolation":"STEP",
					"output":42
				},
				{
					"input":8,
					"interpolation":"STEP",
					"output":43
				},
				{
					"input":8,
					"interpolation":"STEP",
					"output":44
				},
				{
					"input":8,
					"interpolation":"STEP",
					"output":45
				},
				{
					"input":8,
					"interpolation":"STEP",
					"output":46
				},
				{
					"input":8,
					"interpolation":"STEP",
					"output":47
				},
				{
					"input":8,
					"interpolation":"STEP",
					"output":48
				},
				{
					"input":8,
					"interpolation":"STEP",
					"output":49
				},
				{
					"input":8,
					"interpolation":"STEP",
					"output":50
				},
				{
					"input":8,
					"interpolation":"STEP",
					"output":51
				},
				{
					"input":8,
					"interpolation":"STEP",
					"output":52
				},
				{
					"input":8,
					"interpolation":"STEP",
					"output":53
				},
				{
					"input":8,
					"interpolation":"STEP",
					"output":54
				},
				{
					"input":8,
					"interpolation":"STEP",
					"output":55
				},
				{
					"input":8,
					"interpolation":"STEP",
					"output":56
				},
				{
					"input":8,
					"interpolation":"STEP",
					"output":57
				},
				{
					"input":8,
					"interpolation":"STEP",
					"output":58
				},
				{
					"input":8,
					"interpolation":"STEP",
					"output":59
				},
				{
					"input":8,
					"interpolation":"STEP",
					"output":60
				},
				{
					"input":8,
					"interpolation":"STEP",
					"output":61
				},
				{
					"input":8,
					"interpolation":"STEP",
					"output":62
				},
				{
					"input":8,
					"interpolation":"STEP",
					"output":63
				},
				{
					"input":8,
					"interpolation":"STEP",
					"output":64
				},
				{
					"input":8,
					"interpolation":"STEP",
					"output":65
				},
				{
					"input":8,
					"interpolation":"STEP",
					"output":66
				},
				{
					"input":12,
					"interpolation":"LINEAR",
					"output":67
				},
				{
					"input":8,
					"interpolation":"STEP",
					"output":68
				},
				{
					"input":8,
					"interpolation":"STEP",
					"output":69
				},
				{
					"input":12,
					"interpolation":"LINEAR",
					"output":70
				},
				{
					"input":8,
					"interpolation":"STEP",
					"output":71
				},
				{
					"input":8,
					"interpolation":"STEP",
					"output":72
				},
				{
					"input":12,
					"interpolation":"LINEAR",
					"output":73
				},
				{
					"input":8,
					"interpolation":"STEP",
					"output":74
				},
				{
					"input":8,
					"interpolation":"STEP",
					"output":75
				},
				{
					"input":12,
					"interpolation":"LINEAR",
					"output":76
				},
				{
					"input":8,
					"interpolation":"STEP",
					"output":77
				},
				{
					"input":8,
					"interpolation":"STEP",
					"output":78
				},
				{
					"input":12,
					"interpolation":"LINEAR",
					"output":79
				},
				{
					"input":8,
					"interpolation":"STEP",
					"output":80
				},
				{
					"input":8,
					"interpolation":"STEP",
					"output":81
				},
				{
					"input":12,
					"interpolation":"LINEAR",
					"output":82
				},
				{
					"input":8,
					"interpolation":"STEP",
					"output":83
				},
				{
					"input":8,
					"interpolation":"STEP",
					"output":84
				}
			]
		},
		{
			"channels":[
				{
					"sampler":0,
					"target":{
						"node":24,
						"path":"translation"
					}
				},
				{
					"sampler":1,
					"target":{
						"node":24,
						"path":"rotation"
					}
				},
				{
					"sampler":2,
					"target":{
						"node":24,
						"path":"scale"
					}
				},
				{
					"sampler":3,
					"target":{
						"node":17,
						"path":"translation"
					}
				},
				{
					"sampler":4,
					"target":{
						"node":17,
						"path":"rotation"
					}
				},
				{
					"sampler":5,
					"target":{
						"node":17,
						"path":"scale"
					}
				},
				{
					"sampler":6,
					"target":{
						"node":0,
						"path":"translation"
					}
				},
				{
					"sampler":7,
					"target":{
						"node":0,
						"path":"rotation"
					}
				},
				{
					"sampler":8,
					"target":{
						"node":0,
						"path":"scale"
					}
				},
				{
					"sampler":9,
					"target":{
						"node":1,
						"path":"translation"
					}
				},
				{
					"sampler":10,
					"target":{
						"node":1,
						"path":"rotation"
					}
				},
				{
					"sampler":11,
					"target":{
						"node":1,
						"path":"scale"
					}
				},
				{
					"sampler":12,
					"target":{
						"node":2,
						"path":"translation"
					}
				},
				{
					"sampler":13,
					"target":{
						"node":2,
						"path":"rotation"
					}
				},
				{
					"sampler":14,
					"target":{
						"node":2,
						"path":"scale"
					}
				},
				{
					"sampler":15,
					"target":{
						"node":3,
						"path":"translation"
					}
				},
				{
					"sampler":16,
					"target":{
						"node":3,
						"path":"rotation"
					}
				},
				{
					"sampler":17,
					"target":{
						"node":3,
						"path":"scale"
					}
				},
				{
					"sampler":18,
					"target":{
						"node":4,
						"path":"translation"
					}
				},
				{
					"sampler":19,
					"target":{
						"node":4,
						"path":"rotation"
					}
				},
				{
					"sampler":20,
					"target":{
						"node":4,
						"path":"scale"
					}
				},
				{
					"sampler":21,
					"target":{
						"node":6,
						"path":"translation"
					}
				},
				{
					"sampler":22,
					"target":{
						"node":6,
						"path":"rotation"
					}
				},
				{
					"sampler":23,
					"target":{
						"node":6,
						"path":"scale"
					}
				},
				{
					"sampler":24,
					"target":{
						"node":5,
						"path":"translation"
					}
				},
				{
					"sampler":25,
					"target":{
						"node":5,
						"path":"rotation"
					}
				},
				{
					"sampler":26,
					"target":{
						"node":5,
						"path":"scale"
					}
				},
				{
					"sampler":27,
					"target":{
						"node":8,
						"path":"translation"
					}
				},
				{
					"sampler":28,
					"target":{
						"node":8,
						"path":"rotation"
					}
				},
				{
					"sampler":29,
					"target":{
						"node":8,
						"path":"scale"
					}
				},
				{
					"sampler":30,
					"target":{
						"node":7,
						"path":"translation"
					}
				},
				{
					"sampler":31,
					"target":{
						"node":7,
						"path":"rotation"
					}
				},
				{
					"sampler":32,
					"target":{
						"node":7,
						"path":"scale"
					}
				},
				{
					"sampler":33,
					"target":{
						"node":10,
						"path":"translation"
					}
				},
				{
					"sampler":34,
					"target":{
						"node":10,
						"path":"rotation"
					}
				},
				{
					"sampler":35,
					"target":{
						"node":10,
						"path":"scale"
					}
				},
				{
					"sampler":36,
					"target":{
						"node":9,
						"path":"translation"
					}
				},
				{
					"sampler":37,
					"target":{
						"node":9,
						"path":"rotation"
					}
				},
				{
					"sampler":38,
					"target":{
						"node":9,
						"path":"scale"
					}
				},
				{
					"sampler":39,
					"target":{
						"node":12,
						"path":"translation"
					}
				},
				{
					"sampler":40,
					"target":{
						"node":12,
						"path":"rotation"
					}
				},
				{
					"sampler":41,
					"target":{
						"node":12,
						"path":"scale"
					}
				},
				{
					"sampler":42,
					"target":{
						"node":11,
						"path":"translation"
					}
				},
				{
					"sampler":43,
					"target":{
						"node":11,
						"path":"rotation"
					}
				},
				{
					"sampler":44,
					"target":{
						"node":11,
						"path":"scale"
					}
				},
				{
					"sampler":45,
					"target":{
						"node":14,
						"path":"translation"
					}
				},
				{
					"sampler":46,
					"target":{
						"node":14,
						"path":"rotation"
					}
				},
				{
					"sampler":47,
					"target":{
						"node":14,
						"path":"scale"
					}
				},
				{
					"sampler":48,
					"target":{
						"node":13,
						"path":"translation"
					}
				},
				{
					"sampler":49,
					"target":{
						"node":13,
						"path":"rotation"
					}
				},
				{
					"sampler":50,
					"target":{
						"node":13,
						"path":"scale"
					}
				},
				{
					"sampler":51,
					"target":{
						"node":16,
						"path":"translation"
					}
				},
				{
					"sampler":52,
					"target":{
						"node":16,
						"path":"rotation"
					}
				},
				{
					"sampler":53,
					"target":{
						"node":16,
						"path":"scale"
					}
				},
				{
					"sampler":54,
					"target":{
						"node":15,
						"path":"translation"
					}
				},
				{
					"sampler":55,
					"target":{
						"node":15,
						"path":"rotation"
					}
				},
				{
					"sampler":56,
					"target":{
						"node":15,
						"path":"scale"
					}
				},
				{
					"sampler":57,
					"target":{
						"node":18,
						"path":"translation"
					}
				},
				{
					"sampler":58,
					"target":{
						"node":18,
						"path":"rotation"
					}
				},
				{
					"sampler":59,
					"target":{
						"node":18,
						"path":"scale"
					}
				},
				{
					"sampler":60,
					"target":{
						"node":19,
						"path":"translation"
					}
				},
				{
					"sampler":61,
					"target":{
						"node":19,
						"path":"rotation"
					}
				},
				{
					"sampler":62,
					"target":{
						"node":19,
						"path":"scale"
					}
				},
				{
					"sampler":63,
					"target":{
						"node":20,
						"path":"translation"
					}
				},
				{
					"sampler":64,
					"target":{
						"node":20,
						"path":"rotation"
					}
				},
				{
					"sampler":65,
					"target":{
						"node":20,
						"path":"scale"
					}
				},
				{
					"sampler":66,
					"target":{
						"node":21,
						"path":"translation"
					}
				},
				{
					"sampler":67,
					"target":{
						"node":21,
						"path":"rotation"
					}
				},
				{
					"sampler":68,
					"target":{
						"node":21,
						"path":"scale"
					}
				},
				{
					"sampler":69,
					"target":{
						"node":22,
						"path":"translation"
					}
				},
				{
					"sampler":70,
					"target":{
						"node":22,
						"path":"rotation"
					}
				},
				{
					"sampler":71,
					"target":{
						"node":22,
						"path":"scale"
					}
				},
				{
					"sampler":72,
					"target":{
						"node":23,
						"path":"translation"
					}
				},
				{
					"sampler":73,
					"target":{
						"node":23,
						"path":"rotation"
					}
				},
				{
					"sampler":74,
					"target":{
						"node":23,
						"path":"scale"
					}
				}
			],
			"name":"Sitting1",
			"samplers":[
				{
					"input":85,
					"interpolation":"STEP",
					"output":86
				},
				{
					"input":85,
					"interpolation":"STEP",
					"output":87
				},
				{
					"input":85,
					"interpolation":"STEP",
					"output":88
				},
				{
					"input":85,
					"interpolation":"STEP",
					"output":89
				},
				{
					"input":85,
					"interpolation":"STEP",
					"output":90
				},
				{
					"input":85,
					"interpolation":"STEP",
					"output":91
				},
				{
					"input":85,
					"interpolation":"STEP",
					"output":92
				},
				{
					"input":85,
					"interpolation":"STEP",
					"output":93
				},
				{
					"input":85,
					"interpolation":"STEP",
					"output":94
				},
				{
					"input":85,
					"interpolation":"STEP",
					"output":95
				},
				{
					"input":85,
					"interpolation":"STEP",
					"output":96
				},
				{
					"input":85,
					"interpolation":"STEP",
					"output":97
				},
				{
					"input":85,
					"interpolation":"STEP",
					"output":98
				},
				{
					"input":85,
					"interpolation":"STEP",
					"output":99
				},
				{
					"input":85,
					"interpolation":"STEP",
					"output":100
				},
				{
					"input":85,
					"interpolation":"STEP",
					"output":101
				},
				{
					"input":85,
					"interpolation":"STEP",
					"output":102
				},
				{
					"input":85,
					"interpolation":"STEP",
					"output":103
				},
				{
					"input":85,
					"interpolation":"STEP",
					"output":104
				},
				{
					"input":85,
					"interpolation":"STEP",
					"output":105
				},
				{
					"input":85,
					"interpolation":"STEP",
					"output":106
				},
				{
					"input":85,
					"interpolation":"STEP",
					"output":107
				},
				{
					"input":85,
					"interpolation":"STEP",
					"output":108
				},
				{
					"input":85,
					"interpolation":"STEP",
					"output":109
				},
				{
					"input":85,
					"interpolation":"STEP",
					"output":110
				},
				{
					"input":85,
					"interpolation":"STEP",
					"output":111
				},
				{
					"input":85,
					"interpolation":"STEP",
					"output":112
				},
				{
					"input":85,
					"interpolation":"STEP",
					"output":113
				},
				{
					"input":85,
					"interpolation":"STEP",
					"output":114
				},
				{
					"input":85,
					"interpolation":"STEP",
					"output":115
				},
				{
					"input":85,
					"interpolation":"STEP",
					"output":116
				},
				{
					"input":85,
					"interpolation":"STEP",
					"output":117
				},
				{
					"input":85,
					"interpolation":"STEP",
					"output":118
				},
				{
					"input":85,
					"interpolation":"STEP",
					"output":119
				},
				{
					"input":85,
					"interpolation":"STEP",
					"output":120
				},
				{
					"input":85,
					"interpolation":"STEP",
					"output":121
				},
				{
					"input":85,
					"interpolation":"STEP",
					"output":122
				},
				{
					"input":85,
					"interpolation":"STEP",
					"output":123
				},
				{
					"input":85,
					"interpolation":"STEP",
					"output":124
				},
				{
					"input":85,
					"interpolation":"STEP",
					"output":125
				},
				{
					"input":85,
					"interpolation":"STEP",
					"output":126
				},
				{
					"input":85,
					"interpolation":"STEP",
					"output":127
				},
				{
					"input":85,
					"interpolation":"STEP",
					"output":128
				},
				{
					"input":85,
					"interpolation":"STEP",
					"output":129
				},
				{
					"input":85,
					"interpolation":"STEP",
					"output":130
				},
				{
					"input":85,
					"interpolation":"STEP",
					"output":131
				},
				{
					"input":85,
					"interpolation":"STEP",
					"output":132
				},
				{
					"input":85,
					"interpolation":"STEP",
					"output":133
				},
				{
					"input":85,
					"interpolation":"STEP",
					"output":134
				},
				{
					"input":85,
					"interpolation":"STEP",
					"output":135
				},
				{
					"input":85,
					"interpolation":"STEP",
					"output":136
				},
				{
					"input":85,
					"interpolation":"STEP",
					"output":137
				},
				{
					"input":85,
					"interpolation":"STEP",
					"output":138
				},
				{
					"input":85,
					"interpolation":"STEP",
					"output":139
				},
				{
					"input":85,
					"interpolation":"STEP",
					"output":140
				},
				{
					"input":85,
					"interpolation":"STEP",
					"output":141
				},
				{
					"input":85,
					"interpolation":"STEP",
					"output":142
				},
				{
					"input":85,
					"interpolation":"STEP",
					"output":143
				},
				{
					"input":85,
					"interpolation":"STEP",
					"output":144
				},
				{
					"input":85,
					"interpolation":"STEP",
					"output":145
				},
				{
					"input":85,
					"interpolation":"STEP",
					"output":146
				},
				{
					"input":85,
					"interpolation":"STEP",
					"output":147
				},
				{
					"input":85,
					"interpolation":"STEP",
					"output":148
				},
				{
					"input":85,
					"interpolation":"STEP",
					"output":149
				},
				{
					"input":85,
					"interpolation":"STEP",
					"output":150
				},
				{
					"input":85,
					"interpolation":"STEP",
					"output":151
				},
				{
					"input":85,
					"interpolation":"STEP",
					"output":152
				},
				{
					"input":85,
					"interpolation":"STEP",
					"output":153
				},
				{
					"input":85,
					"interpolation":"STEP",
					"output":154
				},
				{
					"input":85,
					"interpolation":"STEP",
					"output":155
				},
				{
					"input":85,
					"interpolation":"STEP",
					"output":156
				},
				{
					"input":85,
					"interpolation":"STEP",
					"output":157
				},
				{
					"input":85,
					"interpolation":"STEP",
					"output":158
				},
				{
					"input":85,
					"interpolation":"STEP",
					"output":159
				},
				{
					"input":85,
					"interpolation":"STEP",
					"output":160
				}
			]
		},
		{
			"channels":[
				{
					"sampler":0,
					"target":{
						"node":24,
						"path":"translation"
					}
				},
				{
					"sampler":1,
					"target":{
						"node":24,
						"path":"rotation"
					}
				},
				{
					"sampler":2,
					"target":{
						"node":24,
						"path":"scale"
					}
				},
				{
					"sampler":3,
					"target":{
						"node":17,
						"path":"translation"
					}
				},
				{
					"sampler":4,
					"target":{
						"node":17,
						"path":"rotation"
					}
				},
				{
					"sampler":5,
					"target":{
						"node":17,
						"path":"scale"
					}
				},
				{
					"sampler":6,
					"target":{
						"node":0,
						"path":"translation"
					}
				},
				{
					"sampler":7,
					"target":{
						"node":0,
						"path":"rotation"
					}
				},
				{
					"sampler":8,
					"target":{
						"node":0,
						"path":"scale"
					}
				},
				{
					"sampler":9,
					"target":{
						"node":1,
						"path":"translation"
					}
				},
				{
					"sampler":10,
					"target":{
						"node":1,
						"path":"rotation"
					}
				},
				{
					"sampler":11,
					"target":{
						"node":1,
						"path":"scale"
					}
				},
				{
					"sampler":12,
					"target":{
						"node":2,
						"path":"translation"
					}
				},
				{
					"sampler":13,
					"target":{
						"node":2,
						"path":"rotation"
					}
				},
				{
					"sampler":14,
					"target":{
						"node":2,
						"path":"scale"
					}
				},
				{
					"sampler":15,
					"target":{
						"node":3,
						"path":"translation"
					}
				},
				{
					"sampler":16,
					"target":{
						"node":3,
						"path":"rotation"
					}
				},
				{
					"sampler":17,
					"target":{
						"node":3,
						"path":"scale"
					}
				},
				{
					"sampler":18,
					"target":{
						"node":4,
						"path":"translation"
					}
				},
				{
					"sampler":19,
					"target":{
						"node":4,
						"path":"rotation"
					}
				},
				{
					"sampler":20,
					"target":{
						"node":4,
						"path":"scale"
					}
				},
				{
					"sampler":21,
					"target":{
						"node":6,
						"path":"translation"
					}
				},
				{
					"sampler":22,
					"target":{
						"node":6,
						"path":"rotation"
					}
				},
				{
					"sampler":23,
					"target":{
						"node":6,
						"path":"scale"
					}
				},
				{
					"sampler":24,
					"target":{
						"node":5,
						"path":"translation"
					}
				},
				{
					"sampler":25,
					"target":{
						"node":5,
						"path":"rotation"
					}
				},
				{
					"sampler":26,
					"target":{
						"node":5,
						"path":"scale"
					}
				},
				{
					"sampler":27,
					"target":{
						"node":8,
						"path":"translation"
					}
				},
				{
					"sampler":28,
					"target":{
						"node":8,
						"path":"rotation"
					}
				},
				{
					"sampler":29,
					"target":{
						"node":8,
						"path":"scale"
					}
				},
				{
					"sampler":30,
					"target":{
						"node":7,
						"path":"translation"
					}
				},
				{
					"sampler":31,
					"target":{
						"node":7,
						"path":"rotation"
					}
				},
				{
					"sampler":32,
					"target":{
						"node":7,
						"path":"scale"
					}
				},
				{
					"sampler":33,
					"target":{
						"node":10,
						"path":"translation"
					}
				},
				{
					"sampler":34,
					"target":{
						"node":10,
						"path":"rotation"
					}
				},
				{
					"sampler":35,
					"target":{
						"node":10,
						"path":"scale"
					}
				},
				{
					"sampler":36,
					"target":{
						"node":9,
						"path":"translation"
					}
				},
				{
					"sampler":37,
					"target":{
						"node":9,
						"path":"rotation"
					}
				},
				{
					"sampler":38,
					"target":{
						"node":9,
						"path":"scale"
					}
				},
				{
					"sampler":39,
					"target":{
						"node":12,
						"path":"translation"
					}
				},
				{
					"sampler":40,
					"target":{
						"node":12,
						"path":"rotation"
					}
				},
				{
					"sampler":41,
					"target":{
						"node":12,
						"path":"scale"
					}
				},
				{
					"sampler":42,
					"target":{
						"node":11,
						"path":"translation"
					}
				},
				{
					"sampler":43,
					"target":{
						"node":11,
						"path":"rotation"
					}
				},
				{
					"sampler":44,
					"target":{
						"node":11,
						"path":"scale"
					}
				},
				{
					"sampler":45,
					"target":{
						"node":14,
						"path":"translation"
					}
				},
				{
					"sampler":46,
					"target":{
						"node":14,
						"path":"rotation"
					}
				},
				{
					"sampler":47,
					"target":{
						"node":14,
						"path":"scale"
					}
				},
				{
					"sampler":48,
					"target":{
						"node":13,
						"path":"translation"
					}
				},
				{
					"sampler":49,
					"target":{
						"node":13,
						"path":"rotation"
					}
				},
				{
					"sampler":50,
					"target":{
						"node":13,
						"path":"scale"
					}
				},
				{
					"sampler":51,
					"target":{
						"node":16,
						"path":"translation"
					}
				},
				{
					"sampler":52,
					"target":{
						"node":16,
						"path":"rotation"
					}
				},
				{
					"sampler":53,
					"target":{
						"node":16,
						"path":"scale"
					}
				},
				{
					"sampler":54,
					"target":{
						"node":15,
						"path":"translation"
					}
				},
				{
					"sampler":55,
					"target":{
						"node":15,
						"path":"rotation"
					}
				},
				{
					"sampler":56,
					"target":{
						"node":15,
						"path":"scale"
					}
				},
				{
					"sampler":57,
					"target":{
						"node":18,
						"path":"translation"
					}
				},
				{
					"sampler":58,
					"target":{
						"node":18,
						"path":"rotation"
					}
				},
				{
					"sampler":59,
					"target":{
						"node":18,
						"path":"scale"
					}
				},
				{
					"sampler":60,
					"target":{
						"node":19,
						"path":"translation"
					}
				},
				{
					"sampler":61,
					"target":{
						"node":19,
						"path":"rotation"
					}
				},
				{
					"sampler":62,
					"target":{
						"node":19,
						"path":"scale"
					}
				},
				{
					"sampler":63,
					"target":{
						"node":20,
						"path":"translation"
					}
				},
				{
					"sampler":64,
					"target":{
						"node":20,
						"path":"rotation"
					}
				},
				{
					"sampler":65,
					"target":{
						"node":20,
						"path":"scale"
					}
				},
				{
					"sampler":66,
					"target":{
						"node":21,
						"path":"translation"
					}
				},
				{
					"sampler":67,
					"target":{
						"node":21,
						"path":"rotation"
					}
				},
				{
					"sampler":68,
					"target":{
						"node":21,
						"path":"scale"
					}
				},
				{
					"sampler":69,
					"target":{
						"node":22,
						"path":"translation"
					}
				},
				{
					"sampler":70,
					"target":{
						"node":22,
						"path":"rotation"
					}
				},
				{
					"sampler":71,
					"target":{
						"node":22,
						"path":"scale"
					}
				},
				{
					"sampler":72,
					"target":{
						"node":23,
						"path":"translation"
					}
				},
				{
					"sampler":73,
					"target":{
						"node":23,
						"path":"rotation"
					}
				},
				{
					"sampler":74,
					"target":{
						"node":23,
						"path":"scale"
					}
				}
			],
			"name":"Sitting2",
			"samplers":[
				{
					"input":85,
					"interpolation":"STEP",
					"output":161
				},
				{
					"input":85,
					"interpolation":"STEP",
					"output":162
				},
				{
					"input":85,
					"interpolation":"STEP",
					"output":163
				},
				{
					"input":85,
					"interpolation":"STEP",
					"output":164
				},
				{
					"input":85,
					"interpolation":"STEP",
					"output":165
				},
				{
					"input":85,
					"interpolation":"STEP",
					"output":166
				},
				{
					"input":85,
					"interpolation":"STEP",
					"output":167
				},
				{
					"input":85,
					"interpolation":"STEP",
					"output":168
				},
				{
					"input":85,
					"interpolation":"STEP",
					"output":169
				},
				{
					"input":85,
					"interpolation":"STEP",
					"output":170
				},
				{
					"input":85,
					"interpolation":"STEP",
					"output":171
				},
				{
					"input":85,
					"interpolation":"STEP",
					"output":172
				},
				{
					"input":85,
					"interpolation":"STEP",
					"output":173
				},
				{
					"input":85,
					"interpolation":"STEP",
					"output":174
				},
				{
					"input":85,
					"interpolation":"STEP",
					"output":175
				},
				{
					"input":85,
					"interpolation":"STEP",
					"output":176
				},
				{
					"input":85,
					"interpolation":"STEP",
					"output":177
				},
				{
					"input":85,
					"interpolation":"STEP",
					"output":178
				},
				{
					"input":85,
					"interpolation":"STEP",
					"output":179
				},
				{
					"input":85,
					"interpolation":"STEP",
					"output":180
				},
				{
					"input":85,
					"interpolation":"STEP",
					"output":181
				},
				{
					"input":85,
					"interpolation":"STEP",
					"output":182
				},
				{
					"input":85,
					"interpolation":"STEP",
					"output":183
				},
				{
					"input":85,
					"interpolation":"STEP",
					"output":184
				},
				{
					"input":85,
					"interpolation":"STEP",
					"output":185
				},
				{
					"input":85,
					"interpolation":"STEP",
					"output":186
				},
				{
					"input":85,
					"interpolation":"STEP",
					"output":187
				},
				{
					"input":85,
					"interpolation":"STEP",
					"output":188
				},
				{
					"input":85,
					"interpolation":"STEP",
					"output":189
				},
				{
					"input":85,
					"interpolation":"STEP",
					"output":190
				},
				{
					"input":85,
					"interpolation":"STEP",
					"output":191
				},
				{
					"input":85,
					"interpolation":"STEP",
					"output":192
				},
				{
					"input":85,
					"interpolation":"STEP",
					"output":193
				},
				{
					"input":85,
					"interpolation":"STEP",
					"output":194
				},
				{
					"input":85,
					"interpolation":"STEP",
					"output":195
				},
				{
					"input":85,
					"interpolation":"STEP",
					"output":196
				},
				{
					"input":85,
					"interpolation":"STEP",
					"output":197
				},
				{
					"input":85,
					"interpolation":"STEP",
					"output":198
				},
				{
					"input":85,
					"interpolation":"STEP",
					"output":199
				},
				{
					"input":85,
					"interpolation":"STEP",
					"output":200
				},
				{
					"input":85,
					"interpolation":"STEP",
					"output":201
				},
				{
					"input":85,
					"interpolation":"STEP",
					"output":202
				},
				{
					"input":85,
					"interpolation":"STEP",
					"output":203
				},
				{
					"input":85,
					"interpolation":"STEP",
					"output":204
				},
				{
					"input":85,
					"interpolation":"STEP",
					"output":205
				},
				{
					"input":85,
					"interpolation":"STEP",
					"output":206
				},
				{
					"input":85,
					"interpolation":"STEP",
					"output":207
				},
				{
					"input":85,
					"interpolation":"STEP",
					"output":208
				},
				{
					"input":85,
					"interpolation":"STEP",
					"output":209
				},
				{
					"input":85,
					"interpolation":"STEP",
					"output":210
				},
				{
					"input":85,
					"interpolation":"STEP",
					"output":211
				},
				{
					"input":85,
					"interpolation":"STEP",
					"output":212
				},
				{
					"input":85,
					"interpolation":"STEP",
					"output":213
				},
				{
					"input":85,
					"interpolation":"STEP",
					"output":214
				},
				{
					"input":85,
					"interpolation":"STEP",
					"output":215
				},
				{
					"input":85,
					"interpolation":"STEP",
					"output":216
				},
				{
					"input":85,
					"interpolation":"STEP",
					"output":217
				},
				{
					"input":85,
					"interpolation":"STEP",
					"output":218
				},
				{
					"input":85,
					"interpolation":"STEP",
					"output":219
				},
				{
					"input":85,
					"interpolation":"STEP",
					"output":220
				},
				{
					"input":85,
					"interpolation":"STEP",
					"output":221
				},
				{
					"input":85,
					"interpolation":"STEP",
					"output":222
				},
				{
					"input":85,
					"interpolation":"STEP",
					"output":223
				},
				{
					"input":85,
					"interpolation":"STEP",
					"output":224
				},
				{
					"input":85,
					"interpolation":"STEP",
					"output":225
				},
				{
					"input":85,
					"interpolation":"STEP",
					"output":226
				},
				{
					"input":85,
					"interpolation":"STEP",
					"output":227
				},
				{
					"input":85,
					"interpolation":"STEP",
					"output":228
				},
				{
					"input":85,
					"interpolation":"STEP",
					"output":229
				},
				{
					"input":85,
					"interpolation":"STEP",
					"output":230
				},
				{
					"input":85,
					"interpolation":"STEP",
					"output":231
				},
				{
					"input":85,
					"interpolation":"STEP",
					"output":232
				},
				{
					"input":85,
					"interpolation":"STEP",
					"output":233
				},
				{
					"input":85,
					"interpolation":"STEP",
					"output":234
				},
				{
					"input":85,
					"interpolation":"STEP",
					"output":235
				}
			]
		}
	],
	"materials":[
		{
			"alphaCutoff":0.5066666603088379,
			"alphaMode":"MASK",
			"doubleSided":true,
			"name":"Butterfly.002",
			"pbrMetallicRoughness":{
				"baseColorTexture":{
					"index":0
				},
				"metallicFactor":0,
				"roughnessFactor":0.75
			}
		}
	],
	"meshes":[
		{
			"name":"Butterfly",
			"primitives":[
				{
					"attributes":{
						"POSITION":0,
						"NORMAL":1,
						"TEXCOORD_0":2,
						"TANGENT":3,
						"JOINTS_0":4,
						"WEIGHTS_0":5
					},
					"indices":6,
					"material":0
				}
			]
		}
	],
	"textures":[
		{
			"sampler":0,
			"source":0
		}
	],
	"images":[
		{
			"mimeType":"image/webp",
			"name":"Butterfly2",
			"uri":"Butterfly2.webp"
		}
	],
	"skins":[
		{
			"inverseBindMatrices":7,
			"joints":[
				24,
				17,
				0,
				1,
				2,
				3,
				4,
				6,
				5,
				8,
				7,
				10,
				9,
				12,
				11,
				14,
				13,
				16,
				15,
				18,
				19,
				20,
				21,
				22,
				23
			],
			"name":"Armature"
		}
	],
	"accessors":[
		{
			"bufferView":0,
			"componentType":5126,
			"count":214,
			"max":[
				5.20054292678833,
				1.289311170578003,
				2.313704252243042
			],
			"min":[
				-5.20054292678833,
				-0.029913872480392456,
				-3.121863842010498
			],
			"type":"VEC3"
		},
		{
			"bufferView":1,
			"componentType":5126,
			"count":214,
			"type":"VEC3"
		},
		{
			"bufferView":2,
			"componentType":5126,
			"count":214,
			"type":"VEC2"
		},
		{
			"bufferView":3,
			"componentType":5126,
			"count":214,
			"type":"VEC4"
		},
		{
			"bufferView":4,
			"componentType":5121,
			"count":214,
			"type":"VEC4"
		},
		{
			"bufferView":5,
			"componentType":5126,
			"count":214,
			"type":"VEC4"
		},
		{
			"bufferView":6,
			"componentType":5123,
			"count":720,
			"type":"SCALAR"
		},
		{
			"bufferView":7,
			"componentType":5126,
			"count":25,
			"type":"MAT4"
		},
		{
			"bufferView":8,
			"componentType":5126,
			"count":2,
			"max":[
				0.4166666666666667
			],
			"min":[
				0
			],
			"type":"SCALAR"
		},
		{
			"bufferView":9,
			"componentType":5126,
			"count":2,
			"type":"VEC3"
		},
		{
			"bufferView":10,
			"componentType":5126,
			"count":2,
			"type":"VEC4"
		},
		{
			"bufferView":11,
			"componentType":5126,
			"count":2,
			"type":"VEC3"
		},
		{
			"bufferView":12,
			"componentType":5126,
			"count":11,
			"max":[
				0.4166666666666667
			],
			"min":[
				0
			],
			"type":"SCALAR"
		},
		{
			"bufferView":13,
			"componentType":5126,
			"count":11,
			"type":"VEC3"
		},
		{
			"bufferView":14,
			"componentType":5126,
			"count":2,
			"type":"VEC4"
		},
		{
			"bufferView":15,
			"componentType":5126,
			"count":2,
			"type":"VEC3"
		},
		{
			"bufferView":16,
			"componentType":5126,
			"count":2,
			"type":"VEC3"
		},
		{
			"bufferView":17,
			"componentType":5126,
			"count":11,
			"type":"VEC4"
		},
		{
			"bufferView":18,
			"componentType":5126,
			"count":2,
			"type":"VEC3"
		},
		{
			"bufferView":19,
			"componentType":5126,
			"count":11,
			"type":"VEC3"
		},
		{
			"bufferView":20,
			"componentType":5126,
			"count":11,
			"type":"VEC4"
		},
		{
			"bufferView":21,
			"componentType":5126,
			"count":2,
			"type":"VEC3"
		},
		{
			"bufferView":22,
			"componentType":5126,
			"count":2,
			"type":"VEC3"
		},
		{
			"bufferView":23,
			"componentType":5126,
			"count":11,
			"type":"VEC4"
		},
		{
			"bufferView":24,
			"componentType":5126,
			"count":2,
			"type":"VEC3"
		},
		{
			"bufferView":25,
			"componentType":5126,
			"count":11,
			"type":"VEC3"
		},
		{
			"bufferView":26,
			"componentType":5126,
			"count":11,
			"type":"VEC4"
		},
		{
			"bufferView":27,
			"componentType":5126,
			"count":2,
			"type":"VEC3"
		},
		{
			"bufferView":28,
			"componentType":5126,
			"count":2,
			"type":"VEC3"
		},
		{
			"bufferView":29,
			"componentType":5126,
			"count":2,
			"type":"VEC4"
		},
		{
			"bufferView":30,
			"componentType":5126,
			"count":2,
			"type":"VEC3"
		},
		{
			"bufferView":31,
			"componentType":5126,
			"count":2,
			"type":"VEC3"
		},
		{
			"bufferView":32,
			"componentType":5126,
			"count":2,
			"type":"VEC4"
		},
		{
			"bufferView":33,
			"componentType":5126,
			"count":2,
			"type":"VEC3"
		},
		{
			"bufferView":34,
			"componentType":5126,
			"count":2,
			"type":"VEC3"
		},
		{
			"bufferView":35,
			"componentType":5126,
			"count":2,
			"type":"VEC4"
		},
		{
			"bufferView":36,
			"componentType":5126,
			"count":2,
			"type":"VEC3"
		},
		{
			"bufferView":37,
			"componentType":5126,
			"count":2,
			"type":"VEC3"
		},
		{
			"bufferView":38,
			"componentType":5126,
			"count":2,
			"type":"VEC4"
		},
		{
			"bufferView":39,
			"componentType":5126,
			"count":2,
			"type":"VEC3"
		},
		{
			"bufferView":40,
			"componentType":5126,
			"count":2,
			"type":"VEC3"
		},
		{
			"bufferView":41,
			"componentType":5126,
			"count":2,
			"type":"VEC4"
		},
		{
			"bufferView":42,
			"componentType":5126,
			"count":2,
			"type":"VEC3"
		},
		{
			"bufferView":43,
			"componentType":5126,
			"count":2,
			"type":"VEC3"
		},
		{
			"bufferView":44,
			"componentType":5126,
			"count":2,
			"type":"VEC4"
		},
		{
			"bufferView":45,
			"componentType":5126,
			"count":2,
			"type":"VEC3"
		},
		{
			"bufferView":46,
			"componentType":5126,
			"count":2,
			"type":"VEC3"
		},
		{
			"bufferView":47,
			"componentType":5126,
			"count":2,
			"type":"VEC4"
		},
		{
			"bufferView":48,
			"componentType":5126,
			"count":2,
			"type":"VEC3"
		},
		{
			"bufferView":49,
			"componentType":5126,
			"count":2,
			"type":"VEC3"
		},
		{
			"bufferView":50,
			"componentType":5126,
			"count":2,
			"type":"VEC4"
		},
		{
			"bufferView":51,
			"componentType":5126,
			"count":2,
			"type":"VEC3"
		},
		{
			"bufferView":52,
			"componentType":5126,
			"count":2,
			"type":"VEC3"
		},
		{
			"bufferView":53,
			"componentType":5126,
			"count":2,
			"type":"VEC4"
		},
		{
			"bufferView":54,
			"componentType":5126,
			"count":2,
			"type":"VEC3"
		},
		{
			"bufferView":55,
			"componentType":5126,
			"count":2,
			"type":"VEC3"
		},
		{
			"bufferView":56,
			"componentType":5126,
			"count":2,
			"type":"VEC4"
		},
		{
			"bufferView":57,
			"componentType":5126,
			"count":2,
			"type":"VEC3"
		},
		{
			"bufferView":58,
			"componentType":5126,
			"count":2,
			"type":"VEC3"
		},
		{
			"bufferView":59,
			"componentType":5126,
			"count":2,
			"type":"VEC4"
		},
		{
			"bufferView":60,
			"componentType":5126,
			"count":2,
			"type":"VEC3"
		},
		{
			"bufferView":61,
			"componentType":5126,
			"count":2,
			"type":"VEC3"
		},
		{
			"bufferView":62,
			"componentType":5126,
			"count":2,
			"type":"VEC4"
		},
		{
			"bufferView":63,
			"componentType":5126,
			"count":2,
			"type":"VEC3"
		},
		{
			"bufferView":64,
			"componentType":5126,
			"count":2,
			"type":"VEC3"
		},
		{
			"bufferView":65,
			"componentType":5126,
			"count":2,
			"type":"VEC4"
		},
		{
			"bufferView":66,
			"componentType":5126,
			"count":2,
			"type":"VEC3"
		},
		{
			"bufferView":67,
			"componentType":5126,
			"count":11,
			"type":"VEC3"
		},
		{
			"bufferView":68,
			"componentType":5126,
			"count":2,
			"type":"VEC4"
		},
		{
			"bufferView":69,
			"componentType":5126,
			"count":2,
			"type":"VEC3"
		},
		{
			"bufferView":70,
			"componentType":5126,
			"count":11,
			"type":"VEC3"
		},
		{
			"bufferView":71,
			"componentType":5126,
			"count":2,
			"type":"VEC4"
		},
		{
			"bufferView":72,
			"componentType":5126,
			"count":2,
			"type":"VEC3"
		},
		{
			"bufferView":73,
			"componentType":5126,
			"count":11,
			"type":"VEC3"
		},
		{
			"bufferView":74,
			"componentType":5126,
			"count":2,
			"type":"VEC4"
		},
		{
			"bufferView":75,
			"componentType":5126,
			"count":2,
			"type":"VEC3"
		},
		{
			"bufferView":76,
			"componentType":5126,
			"count":11,
			"type":"VEC3"
		},
		{
			"bufferView":77,
			"componentType":5126,
			"count":2,
			"type":"VEC4"
		},
		{
			"bufferView":78,
			"componentType":5126,
			"count":2,
			"type":"VEC3"
		},
		{
			"bufferView":79,
			"componentType":5126,
			"count":11,
			"type":"VEC3"
		},
		{
			"bufferView":80,
			"componentType":5126,
			"count":2,
			"type":"VEC4"
		},
		{
			"bufferView":81,
			"componentType":5126,
			"count":2,
			"type":"VEC3"
		},
		{
			"bufferView":82,
			"componentType":5126,
			"count":11,
			"type":"VEC3"
		},
		{
			"bufferView":83,
			"componentType":5126,
			"count":2,
			"type":"VEC4"
		},
		{
			"bufferView":84,
			"componentType":5126,
			"count":2,
			"type":"VEC3"
		},
		{
			"bufferView":85,
			"componentType":5126,
			"count":2,
			"max":[
				0.20833333333333334
			],
			"min":[
				0
			],
			"type":"SCALAR"
		},
		{
			"bufferView":86,
			"componentType":5126,
			"count":2,
			"type":"VEC3"
		},
		{
			"bufferView":87,
			"componentType":5126,
			"count":2,
			"type":"VEC4"
		},
		{
			"bufferView":88,
			"componentType":5126,
			"count":2,
			"type":"VEC3"
		},
		{
			"bufferView":89,
			"componentType":5126,
			"count":2,
			"type":"VEC3"
		},
		{
			"bufferView":90,
			"componentType":5126,
			"count":2,
			"type":"VEC4"
		},
		{
			"bufferView":91,
			"componentType":5126,
			"count":2,
			"type":"VEC3"
		},
		{
			"bufferView":92,
			"componentType":5126,
			"count":2,
			"type":"VEC3"
		},
		{
			"bufferView":93,
			"componentType":5126,
			"count":2,
			"type":"VEC4"
		},
		{
			"bufferView":94,
			"componentType":5126,
			"count":2,
			"type":"VEC3"
		},
		{
			"bufferView":95,
			"componentType":5126,
			"count":2,
			"type":"VEC3"
		},
		{
			"bufferView":96,
			"componentType":5126,
			"count":2,
			"type":"VEC4"
		},
		{
			"bufferView":97,
			"componentType":5126,
			"count":2,
			"type":"VEC3"
		},
		{
			"bufferView":98,
			"componentType":5126,
			"count":2,
			"type":"VEC3"
		},
		{
			"bufferView":99,
			"componentType":5126,
			"count":2,
			"type":"VEC4"
		},
		{
			"bufferView":100,
			"componentType":5126,
			"count":2,
			"type":"VEC3"
		},
		{
			"bufferView":101,
			"componentType":5126,
			"count":2,
			"type":"VEC3"
		},
		{
			"bufferView":102,
			"componentType":5126,
			"count":2,
			"type":"VEC4"
		},
		{
			"bufferView":103,
			"componentType":5126,
			"count":2,
			"type":"VEC3"
		},
		{
			"bufferView":104,
			"componentType":5126,
			"count":2,
			"type":"VEC3"
		},
		{
			"bufferView":105,
			"componentType":5126,
			"count":2,
			"type":"VEC4"
		},
		{
			"bufferView":106,
			"componentType":5126,
			"count":2,
			"type":"VEC3"
		},
		{
			"bufferView":107,
			"componentType":5126,
			"count":2,
			"type":"VEC3"
		},
		{
			"bufferView":108,
			"componentType":5126,
			"count":2,
			"type":"VEC4"
		},
		{
			"bufferView":109,
			"componentType":5126,
			"count":2,
			"type":"VEC3"
		},
		{
			"bufferView":110,
			"componentType":5126,
			"count":2,
			"type":"VEC3"
		},
		{
			"bufferView":111,
			"componentType":5126,
			"count":2,
			"type":"VEC4"
		},
		{
			"bufferView":112,
			"componentType":5126,
			"count":2,
			"type":"VEC3"
		},
		{
			"bufferView":113,
			"componentType":5126,
			"count":2,
			"type":"VEC3"
		},
		{
			"bufferView":114,
			"componentType":5126,
			"count":2,
			"type":"VEC4"
		},
		{
			"bufferView":115,
			"componentType":5126,
			"count":2,
			"type":"VEC3"
		},
		{
			"bufferView":116,
			"componentType":5126,
			"count":2,
			"type":"VEC3"
		},
		{
			"bufferView":117,
			"componentType":5126,
			"count":2,
			"type":"VEC4"
		},
		{
			"bufferView":118,
			"componentType":5126,
			"count":2,
			"type":"VEC3"
		},
		{
			"bufferView":119,
			"componentType":5126,
			"count":2,
			"type":"VEC3"
		},
		{
			"bufferView":120,
			"componentType":5126,
			"count":2,
			"type":"VEC4"
		},
		{
			"bufferView":121,
			"componentType":5126,
			"count":2,
			"type":"VEC3"
		},
		{
			"bufferView":122,
			"componentType":5126,
			"count":2,
			"type":"VEC3"
		},
		{
			"bufferView":123,
			"componentType":5126,
			"count":2,
			"type":"VEC4"
		},
		{
			"bufferView":124,
			"componentType":5126,
			"count":2,
			"type":"VEC3"
		},
		{
			"bufferView":125,
			"componentType":5126,
			"count":2,
			"type":"VEC3"
		},
		{
			"bufferView":126,
			"componentType":5126,
			"count":2,
			"type":"VEC4"
		},
		{
			"bufferView":127,
			"componentType":5126,
			"count":2,
			"type":"VEC3"
		},
		{
			"bufferView":128,
			"componentType":5126,
			"count":2,
			"type":"VEC3"
		},
		{
			"bufferView":129,
			"componentType":5126,
			"count":2,
			"type":"VEC4"
		},
		{
			"bufferView":130,
			"componentType":5126,
			"count":2,
			"type":"VEC3"
		},
		{
			"bufferView":131,
			"componentType":5126,
			"count":2,
			"type":"VEC3"
		},
		{
			"bufferView":132,
			"componentType":5126,
			"count":2,
			"type":"VEC4"
		},
		{
			"bufferView":133,
			"componentType":5126,
			"count":2,
			"type":"VEC3"
		},
		{
			"bufferView":134,
			"componentType":5126,
			"count":2,
			"type":"VEC3"
		},
		{
			"bufferView":135,
			"componentType":5126,
			"count":2,
			"type":"VEC4"
		},
		{
			"bufferView":136,
			"componentType":5126,
			"count":2,
			"type":"VEC3"
		},
		{
			"bufferView":137,
			"componentType":5126,
			"count":2,
			"type":"VEC3"
		},
		{
			"bufferView":138,
			"componentType":5126,
			"count":2,
			"type":"VEC4"
		},
		{
			"bufferView":139,
			"componentType":5126,
			"count":2,
			"type":"VEC3"
		},
		{
			"bufferView":140,
			"componentType":5126,
			"count":2,
			"type":"VEC3"
		},
		{
			"bufferView":141,
			"componentType":5126,
			"count":2,
			"type":"VEC4"
		},
		{
			"bufferView":142,
			"componentType":5126,
			"count":2,
			"type":"VEC3"
		},
		{
			"bufferView":143,
			"componentType":5126,
			"count":2,
			"type":"VEC3"
		},
		{
			"bufferView":144,
			"componentType":5126,
			"count":2,
			"type":"VEC4"
		},
		{
			"bufferView":145,
			"componentType":5126,
			"count":2,
			"type":"VEC3"
		},
		{
			"bufferView":146,
			"componentType":5126,
			"count":2,
			"type":"VEC3"
		},
		{
			"bufferView":147,
			"componentType":5126,
			"count":2,
			"type":"VEC4"
		},
		{
			"bufferView":148,
			"componentType":5126,
			"count":2,
			"type":"VEC3"
		},
		{
			"bufferView":149,
			"componentType":5126,
			"count":2,
			"type":"VEC3"
		},
		{
			"bufferView":150,
			"componentType":5126,
			"count":2,
			"type":"VEC4"
		},
		{
			"bufferView":151,
			"componentType":5126,
			"count":2,
			"type":"VEC3"
		},
		{
			"bufferView":152,
			"componentType":5126,
			"count":2,
			"type":"VEC3"
		},
		{
			"bufferView":153,
			"componentType":5126,
			"count":2,
			"type":"VEC4"
		},
		{
			"bufferView":154,
			"componentType":5126,
			"count":2,
			"type":"VEC3"
		},
		{
			"bufferView":155,
			"componentType":5126,
			"count":2,
			"type":"VEC3"
		},
		{
			"bufferView":156,
			"componentType":5126,
			"count":2,
			"type":"VEC4"
		},
		{
			"bufferView":157,
			"componentType":5126,
			"count":2,
			"type":"VEC3"
		},
		{
			"bufferView":158,
			"componentType":5126,
			"count":2,
			"type":"VEC3"
		},
		{
			"bufferView":159,
			"componentType":5126,
			"count":2,
			"type":"VEC4"
		},
		{
			"bufferView":160,
			"componentType":5126,
			"count":2,
			"type":"VEC3"
		},
		{
			"bufferView":161,
			"componentType":5126,
			"count":2,
			"type":"VEC3"
		},
		{
			"bufferView":162,
			"componentType":5126,
			"count":2,
			"type":"VEC4"
		},
		{
			"bufferView":163,
			"componentType":5126,
			"count":2,
			"type":"VEC3"
		},
		{
			"bufferView":164,
			"componentType":5126,
			"count":2,
			"type":"VEC3"
		},
		{
			"bufferView":165,
			"componentType":5126,
			"count":2,
			"type":"VEC4"
		},
		{
			"bufferView":166,
			"componentType":5126,
			"count":2,
			"type":"VEC3"
		},
		{
			"bufferView":167,
			"componentType":5126,
			"count":2,
			"type":"VEC3"
		},
		{
			"bufferView":168,
			"componentType":5126,
			"count":2,
			"type":"VEC4"
		},
		{
			"bufferView":169,
			"componentType":5126,
			"count":2,
			"type":"VEC3"
		},
		{
			"bufferView":170,
			"componentType":5126,
			"count":2,
			"type":"VEC3"
		},
		{
			"bufferView":171,
			"componentType":5126,
			"count":2,
			"type":"VEC4"
		},
		{
			"bufferView":172,
			"componentType":5126,
			"count":2,
			"type":"VEC3"
		},
		{
			"bufferView":173,
			"componentType":5126,
			"count":2,
			"type":"VEC3"
		},
		{
			"bufferView":174,
			"componentType":5126,
			"count":2,
			"type":"VEC4"
		},
		{
			"bufferView":175,
			"componentType":5126,
			"count":2,
			"type":"VEC3"
		},
		{
			"bufferView":176,
			"componentType":5126,
			"count":2,
			"type":"VEC3"
		},
		{
			"bufferView":177,
			"componentType":5126,
			"count":2,
			"type":"VEC4"
		},
		{
			"bufferView":178,
			"componentType":5126,
			"count":2,
			"type":"VEC3"
		},
		{
			"bufferView":179,
			"componentType":5126,
			"count":2,
			"type":"VEC3"
		},
		{
			"bufferView":180,
			"componentType":5126,
			"count":2,
			"type":"VEC4"
		},
		{
			"bufferView":181,
			"componentType":5126,
			"count":2,
			"type":"VEC3"
		},
		{
			"bufferView":182,
			"componentType":5126,
			"count":2,
			"type":"VEC3"
		},
		{
			"bufferView":183,
			"componentType":5126,
			"count":2,
			"type":"VEC4"
		},
		{
			"bufferView":184,
			"componentType":5126,
			"count":2,
			"type":"VEC3"
		},
		{
			"bufferView":185,
			"componentType":5126,
			"count":2,
			"type":"VEC3"
		},
		{
			"bufferView":186,
			"componentType":5126,
			"count":2,
			"type":"VEC4"
		},
		{
			"bufferView":187,
			"componentType":5126,
			"count":2,
			"type":"VEC3"
		},
		{
			"bufferView":188,
			"componentType":5126,
			"count":2,
			"type":"VEC3"
		},
		{
			"bufferView":189,
			"componentType":5126,
			"count":2,
			"type":"VEC4"
		},
		{
			"bufferView":190,
			"componentType":5126,
			"count":2,
			"type":"VEC3"
		},
		{
			"bufferView":191,
			"componentType":5126,
			"count":2,
			"type":"VEC3"
		},
		{
			"bufferView":192,
			"componentType":5126,
			"count":2,
			"type":"VEC4"
		},
		{
			"bufferView":193,
			"componentType":5126,
			"count":2,
			"type":"VEC3"
		},
		{
			"bufferView":194,
			"componentType":5126,
			"count":2,
			"type":"VEC3"
		},
		{
			"bufferView":195,
			"componentType":5126,
			"count":2,
			"type":"VEC4"
		},
		{
			"bufferView":196,
			"componentType":5126,
			"count":2,
			"type":"VEC3"
		},
		{
			"bufferView":197,
			"componentType":5126,
			"count":2,
			"type":"VEC3"
		},
		{
			"bufferView":198,
			"componentType":5126,
			"count":2,
			"type":"VEC4"
		},
		{
			"bufferView":199,
			"componentType":5126,
			"count":2,
			"type":"VEC3"
		},
		{
			"bufferView":200,
			"componentType":5126,
			"count":2,
			"type":"VEC3"
		},
		{
			"bufferView":201,
			"componentType":5126,
			"count":2,
			"type":"VEC4"
		},
		{
			"bufferView":202,
			"componentType":5126,
			"count":2,
			"type":"VEC3"
		},
		{
			"bufferView":203,
			"componentType":5126,
			"count":2,
			"type":"VEC3"
		},
		{
			"bufferView":204,
			"componentType":5126,
			"count":2,
			"type":"VEC4"
		},
		{
			"bufferView":205,
			"componentType":5126,
			"count":2,
			"type":"VEC3"
		},
		{
			"bufferView":206,
			"componentType":5126,
			"count":2,
			"type":"VEC3"
		},
		{
			"bufferView":207,
			"componentType":5126,
			"count":2,
			"type":"VEC4"
		},
		{
			"bufferView":208,
			"componentType":5126,
			"count":2,
			"type":"VEC3"
		},
		{
			"bufferView":209,
			"componentType":5126,
			"count":2,
			"type":"VEC3"
		},
		{
			"bufferView":210,
			"componentType":5126,
			"count":2,
			"type":"VEC4"
		},
		{
			"bufferView":211,
			"componentType":5126,
			"count":2,
			"type":"VEC3"
		},
		{
			"bufferView":212,
			"componentType":5126,
			"count":2,
			"type":"VEC3"
		},
		{
			"bufferView":213,
			"componentType":5126,
			"count":2,
			"type":"VEC4"
		},
		{
			"bufferView":214,
			"componentType":5126,
			"count":2,
			"type":"VEC3"
		},
		{
			"bufferView":215,
			"componentType":5126,
			"count":2,
			"type":"VEC3"
		},
		{
			"bufferView":216,
			"componentType":5126,
			"count":2,
			"type":"VEC4"
		},
		{
			"bufferView":217,
			"componentType":5126,
			"count":2,
			"type":"VEC3"
		},
		{
			"bufferView":218,
			"componentType":5126,
			"count":2,
			"type":"VEC3"
		},
		{
			"bufferView":219,
			"componentType":5126,
			"count":2,
			"type":"VEC4"
		},
		{
			"bufferView":220,
			"componentType":5126,
			"count":2,
			"type":"VEC3"
		},
		{
			"bufferView":221,
			"componentType":5126,
			"count":2,
			"type":"VEC3"
		},
		{
			"bufferView":222,
			"componentType":5126,
			"count":2,
			"type":"VEC4"
		},
		{
			"bufferView":223,
			"componentType":5126,
			"count":2,
			"type":"VEC3"
		},
		{
			"bufferView":224,
			"componentType":5126,
			"count":2,
			"type":"VEC3"
		},
		{
			"bufferView":225,
			"componentType":5126,
			"count":2,
			"type":"VEC4"
		},
		{
			"bufferView":226,
			"componentType":5126,
			"count":2,
			"type":"VEC3"
		},
		{
			"bufferView":227,
			"componentType":5126,
			"count":2,
			"type":"VEC3"
		},
		{
			"bufferView":228,
			"componentType":5126,
			"count":2,
			"type":"VEC4"
		},
		{
			"bufferView":229,
			"componentType":5126,
			"count":2,
			"type":"VEC3"
		},
		{
			"bufferView":230,
			"componentType":5126,
			"count":2,
			"type":"VEC3"
		},
		{
			"bufferView":231,
			"componentType":5126,
			"count":2,
			"type":"VEC4"
		},
		{
			"bufferView":232,
			"componentType":5126,
			"count":2,
			"type":"VEC3"
		},
		{
			"bufferView":233,
			"componentType":5126,
			"count":2,
			"type":"VEC3"
		},
		{
			"bufferView":234,
			"componentType":5126,
			"count":2,
			"type":"VEC4"
		},
		{
			"bufferView":235,
			"componentType":5126,
			"count":2,
			"type":"VEC3"
		}
	],
	"bufferViews":[
		{
			"buffer":0,
			"byteLength":2568,
			"byteOffset":0,
			"target":34962
		},
		{
			"buffer":0,
			"byteLength":2568,
			"byteOffset":2568,
			"target":34962
		},
		{
			"buffer":0,
			"byteLength":1712,
			"byteOffset":5136,
			"target":34962
		},
		{
			"buffer":0,
			"byteLength":3424,
			"byteOffset":6848,
			"target":34962
		},
		{
			"buffer":0,
			"byteLength":856,
			"byteOffset":10272,
			"target":34962
		},
		{
			"buffer":0,
			"byteLength":3424,
			"byteOffset":11128,
			"target":34962
		},
		{
			"buffer":0,
			"byteLength":1440,
			"byteOffset":14552,
			"target":34963
		},
		{
			"buffer":0,
			"byteLength":1600,
			"byteOffset":15992
		},
		{
			"buffer":0,
			"byteLength":8,
			"byteOffset":17592
		},
		{
			"buffer":0,
			"byteLength":24,
			"byteOffset":17600
		},
		{
			"buffer":0,
			"byteLength":32,
			"byteOffset":17624
		},
		{
			"buffer":0,
			"byteLength":24,
			"byteOffset":17656
		},
		{
			"buffer":0,
			"byteLength":44,
			"byteOffset":17680
		},
		{
			"buffer":0,
			"byteLength":132,
			"byteOffset":17724
		},
		{
			"buffer":0,
			"byteLength":32,
			"byteOffset":17856
		},
		{
			"buffer":0,
			"byteLength":24,
			"byteOffset":17888
		},
		{
			"buffer":0,
			"byteLength":24,
			"byteOffset":17912
		},
		{
			"buffer":0,
			"byteLength":176,
			"byteOffset":17936
		},
		{
			"buffer":0,
			"byteLength":24,
			"byteOffset":18112
		},
		{
			"buffer":0,
			"byteLength":132,
			"byteOffset":18136
		},
		{
			"buffer":0,
			"byteLength":176,
			"byteOffset":18268
		},
		{
			"buffer":0,
			"byteLength":24,
			"byteOffset":18444
		},
		{
			"buffer":0,
			"byteLength":24,
			"byteOffset":18468
		},
		{
			"buffer":0,
			"byteLength":176,
			"byteOffset":18492
		},
		{
			"buffer":0,
			"byteLength":24,
			"byteOffset":18668
		},
		{
			"buffer":0,
			"byteLength":132,
			"byteOffset":18692
		},
		{
			"buffer":0,
			"byteLength":176,
			"byteOffset":18824
		},
		{
			"buffer":0,
			"byteLength":24,
			"byteOffset":19000
		},
		{
			"buffer":0,
			"byteLength":24,
			"byteOffset":19024
		},
		{
			"buffer":0,
			"byteLength":32,
			"byteOffset":19048
		},
		{
			"buffer":0,
			"byteLength":24,
			"byteOffset":19080
		},
		{
			"buffer":0,
			"byteLength":24,
			"byteOffset":19104
		},
		{
			"buffer":0,
			"byteLength":32,
			"byteOffset":19128
		},
		{
			"buffer":0,
			"byteLength":24,
			"byteOffset":19160
		},
		{
			"buffer":0,
			"byteLength":24,
			"byteOffset":19184
		},
		{
			"buffer":0,
			"byteLength":32,
			"byteOffset":19208
		},
		{
			"buffer":0,
			"byteLength":24,
			"byteOffset":19240
		},
		{
			"buffer":0,
			"byteLength":24,
			"byteOffset":19264
		},
		{
			"buffer":0,
			"byteLength":32,
			"byteOffset":19288
		},
		{
			"buffer":0,
			"byteLength":24,
			"byteOffset":19320
		},
		{
			"buffer":0,
			"byteLength":24,
			"byteOffset":19344
		},
		{
			"buffer":0,
			"byteLength":32,
			"byteOffset":19368
		},
		{
			"buffer":0,
			"byteLength":24,
			"byteOffset":19400
		},
		{
			"buffer":0,
			"byteLength":24,
			"byteOffset":19424
		},
		{
			"buffer":0,
			"byteLength":32,
			"byteOffset":19448
		},
		{
			"buffer":0,
			"byteLength":24,
			"byteOffset":19480
		},
		{
			"buffer":0,
			"byteLength":24,
			"byteOffset":19504
		},
		{
			"buffer":0,
			"byteLength":32,
			"byteOffset":19528
		},
		{
			"buffer":0,
			"byteLength":24,
			"byteOffset":19560
		},
		{
			"buffer":0,
			"byteLength":24,
			"byteOffset":19584
		},
		{
			"buffer":0,
			"byteLength":32,
			"byteOffset":19608
		},
		{
			"buffer":0,
			"byteLength":24,
			"byteOffset":19640
		},
		{
			"buffer":0,
			"byteLength":24,
			"byteOffset":19664
		},
		{
			"buffer":0,
			"byteLength":32,
			"byteOffset":19688
		},
		{
			"buffer":0,
			"byteLength":24,
			"byteOffset":19720
		},
		{
			"buffer":0,
			"byteLength":24,
			"byteOffset":19744
		},
		{
			"buffer":0,
			"byteLength":32,
			"byteOffset":19768
		},
		{
			"buffer":0,
			"byteLength":24,
			"byteOffset":19800
		},
		{
			"buffer":0,
			"byteLength":24,
			"byteOffset":19824
		},
		{
			"buffer":0,
			"byteLength":32,
			"byteOffset":19848
		},
		{
			"buffer":0,
			"byteLength":24,
			"byteOffset":19880
		},
		{
			"buffer":0,
			"byteLength":24,
			"byteOffset":19904
		},
		{
			"buffer":0,
			"byteLength":32,
			"byteOffset":19928
		},
		{
			"buffer":0,
			"byteLength":24,
			"byteOffset":19960
		},
		{
			"buffer":0,
			"byteLength":24,
			"byteOffset":19984
		},
		{
			"buffer":0,
			"byteLength":32,
			"byteOffset":20008
		},
		{
			"buffer":0,
			"byteLength":24,
			"byteOffset":20040
		},
		{
			"buffer":0,
			"byteLength":132,
			"byteOffset":20064
		},
		{
			"buffer":0,
			"byteLength":32,
			"byteOffset":20196
		},
		{
			"buffer":0,
			"byteLength":24,
			"byteOffset":20228
		},
		{
			"buffer":0,
			"byteLength":132,
			"byteOffset":20252
		},
		{
			"buffer":0,
			"byteLength":32,
			"byteOffset":20384
		},
		{
			"buffer":0,
			"byteLength":24,
			"byteOffset":20416
		},
		{
			"buffer":0,
			"byteLength":132,
			"byteOffset":20440
		},
		{
			"buffer":0,
			"byteLength":32,
			"byteOffset":20572
		},
		{
			"buffer":0,
			"byteLength":24,
			"byteOffset":20604
		},
		{
			"buffer":0,
			"byteLength":132,
			"byteOffset":20628
		},
		{
			"buffer":0,
			"byteLength":32,
			"byteOffset":20760
		},
		{
			"buffer":0,
			"byteLength":24,
			"byteOffset":20792
		},
		{
			"buffer":0,
			"byteLength":132,
			"byteOffset":20816
		},
		{
			"buffer":0,
			"byteLength":32,
			"byteOffset":20948
		},
		{
			"buffer":0,
			"byteLength":24,
			"byteOffset":20980
		},
		{
			"buffer":0,
			"byteLength":132,
			"byteOffset":21004
		},
		{
			"buffer":0,
			"byteLength":32,
			"byteOffset":21136
		},
		{
			"buffer":0,
			"byteLength":24,
			"byteOffset":21168
		},
		{
			"buffer":0,
			"byteLength":8,
			"byteOffset":21192
		},
		{
			"buffer":0,
			"byteLength":24,
			"byteOffset":21200
		},
		{
			"buffer":0,
			"byteLength":32,
			"byteOffset":21224
		},
		{
			"buffer":0,
			"byteLength":24,
			"byteOffset":21256
		},
		{
			"buffer":0,
			"byteLength":24,
			"byteOffset":21280
		},
		{
			"buffer":0,
			"byteLength":32,
			"byteOffset":21304
		},
		{
			"buffer":0,
			"byteLength":24,
			"byteOffset":21336
		},
		{
			"buffer":0,
			"byteLength":24,
			"byteOffset":21360
		},
		{
			"buffer":0,
			"byteLength":32,
			"byteOffset":21384
		},
		{
			"buffer":0,
			"byteLength":24,
			"byteOffset":21416
		},
		{
			"buffer":0,
			"byteLength":24,
			"byteOffset":21440
		},
		{
			"buffer":0,
			"byteLength":32,
			"byteOffset":21464
		},
		{
			"buffer":0,
			"byteLength":24,
			"byteOffset":21496
		},
		{
			"buffer":0,
			"byteLength":24,
			"byteOffset":21520
		},
		{
			"buffer":0,
			"byteLength":32,
			"byteOffset":21544
		},
		{
			"buffer":0,
			"byteLength":24,
			"byteOffset":21576
		},
		{
			"buffer":0,
			"byteLength":24,
			"byteOffset":21600
		},
		{
			"buffer":0,
			"byteLength":32,
			"byteOffset":21624
		},
		{
			"buffer":0,
			"byteLength":24,
			"byteOffset":21656
		},
		{
			"buffer":0,
			"byteLength":24,
			"byteOffset":21680
		},
		{
			"buffer":0,
			"byteLength":32,
			"byteOffset":21704
		},
		{
			"buffer":0,
			"byteLength":24,
			"byteOffset":21736
		},
		{
			"buffer":0,
			"byteLength":24,
			"byteOffset":21760
		},
		{
			"buffer":0,
			"byteLength":32,
			"byteOffset":21784
		},
		{
			"buffer":0,
			"byteLength":24,
			"byteOffset":21816
		},
		{
			"buffer":0,
			"byteLength":24,
			"byteOffset":21840
		},
		{
			"buffer":0,
			"byteLength":32,
			"byteOffset":21864
		},
		{
			"buffer":0,
			"byteLength":24,
			"byteOffset":21896
		},
		{
			"buffer":0,
			"byteLength":24,
			"byteOffset":21920
		},
		{
			"buffer":0,
			"byteLength":32,
			"byteOffset":21944
		},
		{
			"buffer":0,
			"byteLength":24,
			"byteOffset":21976
		},
		{
			"buffer":0,
			"byteLength":24,
			"byteOffset":22000
		},
		{
			"buffer":0,
			"byteLength":32,
			"byteOffset":22024
		},
		{
			"buffer":0,
			"byteLength":24,
			"byteOffset":22056
		},
		{
			"buffer":0,
			"byteLength":24,
			"byteOffset":22080
		},
		{
			"buffer":0,
			"byteLength":32,
			"byteOffset":22104
		},
		{
			"buffer":0,
			"byteLength":24,
			"byteOffset":22136
		},
		{
			"buffer":0,
			"byteLength":24,
			"byteOffset":22160
		},
		{
			"buffer":0,
			"byteLength":32,
			"byteOffset":22184
		},
		{
			"buffer":0,
			"byteLength":24,
			"byteOffset":22216
		},
		{
			"buffer":0,
			"byteLength":24,
			"byteOffset":22240
		},
		{
			"buffer":0,
			"byteLength":32,
			"byteOffset":22264
		},
		{
			"buffer":0,
			"byteLength":24,
			"byteOffset":22296
		},
		{
			"buffer":0,
			"byteLength":24,
			"byteOffset":22320
		},
		{
			"buffer":0,
			"byteLength":32,
			"byteOffset":22344
		},
		{
			"buffer":0,
			"byteLength":24,
			"byteOffset":22376
		},
		{
			"buffer":0,
			"byteLength":24,
			"byteOffset":22400
		},
		{
			"buffer":0,
			"byteLength":32,
			"byteOffset":22424
		},
		{
			"buffer":0,
			"byteLength":24,
			"byteOffset":22456
		},
		{
			"buffer":0,
			"byteLength":24,
			"byteOffset":22480
		},
		{
			"buffer":0,
			"byteLength":32,
			"byteOffset":22504
		},
		{
			"buffer":0,
			"byteLength":24,
			"byteOffset":22536
		},
		{
			"buffer":0,
			"byteLength":24,
			"byteOffset":22560
		},
		{
			"buffer":0,
			"byteLength":32,
			"byteOffset":22584
		},
		{
			"buffer":0,
			"byteLength":24,
			"byteOffset":22616
		},
		{
			"buffer":0,
			"byteLength":24,
			"byteOffset":22640
		},
		{
			"buffer":0,
			"byteLength":32,
			"byteOffset":22664
		},
		{
			"buffer":0,
			"byteLength":24,
			"byteOffset":22696
		},
		{
			"buffer":0,
			"byteLength":24,
			"byteOffset":22720
		},
		{
			"buffer":0,
			"byteLength":32,
			"byteOffset":22744
		},
		{
			"buffer":0,
			"byteLength":24,
			"byteOffset":22776
		},
		{
			"buffer":0,
			"byteLength":24,
			"byteOffset":22800
		},
		{
			"buffer":0,
			"byteLength":32,
			"byteOffset":22824
		},
		{
			"buffer":0,
			"byteLength":24,
			"byteOffset":22856
		},
		{
			"buffer":0,
			"byteLength":24,
			"byteOffset":22880
		},
		{
			"buffer":0,
			"byteLength":32,
			"byteOffset":22904
		},
		{
			"buffer":0,
			"byteLength":24,
			"byteOffset":22936
		},
		{
			"buffer":0,
			"byteLength":24,
			"byteOffset":22960
		},
		{
			"buffer":0,
			"byteLength":32,
			"byteOffset":22984
		},
		{
			"buffer":0,
			"byteLength":24,
			"byteOffset":23016
		},
		{
			"buffer":0,
			"byteLength":24,
			"byteOffset":23040
		},
		{
			"buffer":0,
			"byteLength":32,
			"byteOffset":23064
		},
		{
			"buffer":0,
			"byteLength":24,
			"byteOffset":23096
		},
		{
			"buffer":0,
			"byteLength":24,
			"byteOffset":23120
		},
		{
			"buffer":0,
			"byteLength":32,
			"byteOffset":23144
		},
		{
			"buffer":0,
			"byteLength":24,
			"byteOffset":23176
		},
		{
			"buffer":0,
			"byteLength":24,
			"byteOffset":23200
		},
		{
			"buffer":0,
			"byteLength":32,
			"byteOffset":23224
		},
		{
			"buffer":0,
			"byteLength":24,
			"byteOffset":23256
		},
		{
			"buffer":0,
			"byteLength":24,
			"byteOffset":23280
		},
		{
			"buffer":0,
			"byteLength":32,
			"byteOffset":23304
		},
		{
			"buffer":0,
			"byteLength":24,
			"byteOffset":23336
		},
		{
			"buffer":0,
			"byteLength":24,
			"byteOffset":23360
		},
		{
			"buffer":0,
			"byteLength":32,
			"byteOffset":23384
		},
		{
			"buffer":0,
			"byteLength":24,
			"byteOffset":23416
		},
		{
			"buffer":0,
			"byteLength":24,
			"byteOffset":23440
		},
		{
			"buffer":0,
			"byteLength":32,
			"byteOffset":23464
		},
		{
			"buffer":0,
			"byteLength":24,
			"byteOffset":23496
		},
		{
			"buffer":0,
			"byteLength":24,
			"byteOffset":23520
		},
		{
			"buffer":0,
			"byteLength":32,
			"byteOffset":23544
		},
		{
			"buffer":0,
			"byteLength":24,
			"byteOffset":23576
		},
		{
			"buffer":0,
			"byteLength":24,
			"byteOffset":23600
		},
		{
			"buffer":0,
			"byteLength":32,
			"byteOffset":23624
		},
		{
			"buffer":0,
			"byteLength":24,
			"byteOffset":23656
		},
		{
			"buffer":0,
			"byteLength":24,
			"byteOffset":23680
		},
		{
			"buffer":0,
			"byteLength":32,
			"byteOffset":23704
		},
		{
			"buffer":0,
			"byteLength":24,
			"byteOffset":23736
		},
		{
			"buffer":0,
			"byteLength":24,
			"byteOffset":23760
		},
		{
			"buffer":0,
			"byteLength":32,
			"byteOffset":23784
		},
		{
			"buffer":0,
			"byteLength":24,
			"byteOffset":23816
		},
		{
			"buffer":0,
			"byteLength":24,
			"byteOffset":23840
		},
		{
			"buffer":0,
			"byteLength":32,
			"byteOffset":23864
		},
		{
			"buffer":0,
			"byteLength":24,
			"byteOffset":23896
		},
		{
			"buffer":0,
			"byteLength":24,
			"byteOffset":23920
		},
		{
			"buffer":0,
			"byteLength":32,
			"byteOffset":23944
		},
		{
			"buffer":0,
			"byteLength":24,
			"byteOffset":23976
		},
		{
			"buffer":0,
			"byteLength":24,
			"byteOffset":24000
		},
		{
			"buffer":0,
			"byteLength":32,
			"byteOffset":24024
		},
		{
			"buffer":0,
			"byteLength":24,
			"byteOffset":24056
		},
		{
			"buffer":0,
			"byteLength":24,
			"byteOffset":24080
		},
		{
			"buffer":0,
			"byteLength":32,
			"byteOffset":24104
		},
		{
			"buffer":0,
			"byteLength":24,
			"byteOffset":24136
		},
		{
			"buffer":0,
			"byteLength":24,
			"byteOffset":24160
		},
		{
			"buffer":0,
			"byteLength":32,
			"byteOffset":24184
		},
		{
			"buffer":0,
			"byteLength":24,
			"byteOffset":24216
		},
		{
			"buffer":0,
			"byteLength":24,
			"byteOffset":24240
		},
		{
			"buffer":0,
			"byteLength":32,
			"byteOffset":24264
		},
		{
			"buffer":0,
			"byteLength":24,
			"byteOffset":24296
		},
		{
			"buffer":0,
			"byteLength":24,
			"byteOffset":24320
		},
		{
			"buffer":0,
			"byteLength":32,
			"byteOffset":24344
		},
		{
			"buffer":0,
			"byteLength":24,
			"byteOffset":24376
		},
		{
			"buffer":0,
			"byteLength":24,
			"byteOffset":24400
		},
		{
			"buffer":0,
			"byteLength":32,
			"byteOffset":24424
		},
		{
			"buffer":0,
			"byteLength":24,
			"byteOffset":24456
		},
		{
			"buffer":0,
			"byteLength":24,
			"byteOffset":24480
		},
		{
			"buffer":0,
			"byteLength":32,
			"byteOffset":24504
		},
		{
			"buffer":0,
			"byteLength":24,
			"byteOffset":24536
		},
		{
			"buffer":0,
			"byteLength":24,
			"byteOffset":24560
		},
		{
			"buffer":0,
			"byteLength":32,
			"byteOffset":24584
		},
		{
			"buffer":0,
			"byteLength":24,
			"byteOffset":24616
		},
		{
			"buffer":0,
			"byteLength":24,
			"byteOffset":24640
		},
		{
			"buffer":0,
			"byteLength":32,
			"byteOffset":24664
		},
		{
			"buffer":0,
			"byteLength":24,
			"byteOffset":24696
		},
		{
			"buffer":0,
			"byteLength":24,
			"byteOffset":24720
		},
		{
			"buffer":0,
			"byteLength":32,
			"byteOffset":24744
		},
		{
			"buffer":0,
			"byteLength":24,
			"byteOffset":24776
		},
		{
			"buffer":0,
			"byteLength":24,
			"byteOffset":24800
		},
		{
			"buffer":0,
			"byteLength":32,
			"byteOffset":24824
		},
		{
			"buffer":0,
			"byteLength":24,
			"byteOffset":24856
		},
		{
			"buffer":0,
			"byteLength":24,
			"byteOffset":24880
		},
		{
			"buffer":0,
			"byteLength":32,
			"byteOffset":24904
		},
		{
			"buffer":0,
			"byteLength":24,
			"byteOffset":24936
		},
		{
			"buffer":0,
			"byteLength":24,
			"byteOffset":24960
		},
		{
			"buffer":0,
			"byteLength":32,
			"byteOffset":24984
		},
		{
			"buffer":0,
			"byteLength":24,
			"byteOffset":25016
		},
		{
			"buffer":0,
			"byteLength":24,
			"byteOffset":25040
		},
		{
			"buffer":0,
			"byteLength":32,
			"byteOffset":25064
		},
		{
			"buffer":0,
			"byteLength":24,
			"byteOffset":25096
		},
		{
			"buffer":0,
			"byteLength":24,
			"byteOffset":25120
		},
		{
			"buffer":0,
			"byteLength":32,
			"byteOffset":25144
		},
		{
			"buffer":0,
			"byteLength":24,
			"byteOffset":25176
		}
	],
	"samplers":[
		{
			"magFilter":9729,
			"minFilter":9987
		}
	],
	"buffers":[
		{
			"byteLength":25200,
			"uri":"Butterfly.bin"
		}
	]
}
